<!DOCTYPE svg PUBLIC "-//W3C//DTD SVG 1.1//EN" "http://www.w3.org/Graphics/SVG/1.1/DTD/svg11.dtd">

<!-- Uploaded to: SVG Repo, www.svgrepo.com, Transformed by: SVG Repo Mixer Tools -->
<svg fill="#cca44d" width="800px" height="800px" viewBox="0 0 24 24" id="down-alt" data-name="Flat Color" xmlns="http://www.w3.org/2000/svg" class="icon flat-color">

<g id="SVGRepo_bgCarrier" stroke-width="0"/>

<g id="SVGRepo_tracerCarrier" stroke-linecap="round" stroke-linejoin="round"/>

<g id="SVGRepo_iconCarrier">

<path id="primary" d="M21.21,12.88l-1.84-2.46A2,2,0,0,0,16.66,10L16,10.4V4.27a2,2,0,0,0-2-2H10a2,2,0,0,0-2,2V10.4L7.34,10a2,2,0,0,0-2.71.46L2.79,12.88a2,2,0,0,0,.37,2.78l7.61,5.92a2,2,0,0,0,2.46,0l7.61-5.92A2,2,0,0,0,21.21,12.88Z" style="fill: #cca44d;"/>

</g>

</svg>