<svg xmlns="http://www.w3.org/2000/svg" width="40" zoomAndPan="magnify" viewBox="0 0 30 30" height="40" preserveAspectRatio="xMidYMid meet" xmlns:v="https://vecta.io/nano"><defs><clipPath id="A"><path d="M.539 0h28.977v29.031H.539zm0 0" clip-rule="nonzero"/></clipPath></defs><g clip-path="url(#A)"><path fill="#cca44d" d="M29.215 11.605a14.49 14.49 0 0 0-.848-2.734c-.363-.859-.812-1.691-1.336-2.469a14.55 14.55 0 0 0-1.766-2.148 14.53 14.53 0 0 0-2.145-1.773c-.773-.523-1.602-.977-2.457-1.34-.875-.371-1.789-.652-2.719-.844a14.47 14.47 0 0 0-2.906-.293c-.992 0-1.977.102-2.93.297a14.43 14.43 0 0 0-2.719.848 14.71 14.71 0 0 0-2.461 1.34 14.78 14.78 0 0 0-2.145 1.773 14.75 14.75 0 0 0-1.77 2.145A14.6 14.6 0 0 0 1.68 8.871a14.43 14.43 0 0 0-.848 2.719c-.195.953-.293 1.934-.293 2.914 0 .996.102 1.992.297 2.957.191.941.477 1.863.848 2.746.367.867.82 1.703 1.344 2.484.523.77 1.121 1.496 1.781 2.156a14.54 14.54 0 0 0 2.152 1.766c.777.523 1.609.973 2.473 1.332.875.371 1.797.652 2.73.84.949.191 1.926.289 2.906.289h.031a14.44 14.44 0 0 0 2.902-.305c.926-.191 1.836-.48 2.707-.852a14.67 14.67 0 0 0 2.449-1.348c.762-.52 1.48-1.117 2.133-1.777a14.56 14.56 0 0 0 3.09-4.617c.371-.875.652-1.793.84-2.723a14.3 14.3 0 0 0 .289-2.918c0-.984-.102-1.973-.297-2.93zM15.066 27.219c-6.957 0-12.648-5.617-12.691-12.531-.02-3.445 1.297-6.676 3.715-9.102 2.367-2.379 5.609-3.738 8.902-3.738h.035c6.953.02 12.629 5.715 12.648 12.699.012 3.367-1.301 6.547-3.691 8.945a12.52 12.52 0 0 1-8.902 3.727zm0 0"/></g><path fill="#cca44d" d="M22.59 7.676a1.37 1.37 0 0 0-.445.047l-5.762 1.703-11.398 3.434c-.285.086-.625.352-.723.684-.09.301 0 .598.238.797.133.113.285.176.434.227l1.84.668 4.023 1.445-.129 1.086-.129 1.117c-.121 1.184-.102 1.742-.09 1.977.047.98.211 1.109.277 1.152.305.191.773-.051 1.117-.227.145-.078.328-.187 1.508-1.187l.125-.105.367.582 1.285 2.008c.055.086.352.508.781.508.012 0 .02 0 .031-.004.453-.02.707-.512.754-.609l1.434-3.078.785-1.687 1.18-2.531 3.113-6.707c.129-.27.176-.699-.02-.996-.082-.125-.25-.277-.598-.301zm-2.047 3.203l-4.75 10.211-3.012-4.742zm-9.09 4.277l-3.77-1.371 10.207-3.059-6.254 4.402c-.062.047-.086.051-.09.051s-.023 0-.094-.023zm.648 4.336l.105-.996.375.586zm0 0"/></svg>